# xmcd CD database file
#
# Track frame offsets:
#	150
#	17511
#	29679
#	43030
#	56899
#	73227
#	87051
#	99995
#	113576
#	127498
#	142897
#	158071
#	173584
#
# Disc length: 2497 seconds
#
# Revision: 0
# Processed by: cddbd v1.5.2PL0 Copyright (c) Steve Scherf et al.
# Submitted via: CDex 1.70beta2
#
DISCID=ad09bf0d
DTITLE=Loving Mary Band - Little Bit Of Love 
DYEAR=2016
DGENRE=Country
TTITLE0=Little Bit Of Love 
TTITLE1=Right Now 
TTITLE2=Take It And Run 
TTITLE3=Where There's Fire 
TTITLE4=Knock Knock 
TTITLE5=Broke But Not Broken 
TTITLE6=Pick It Up 
TTITLE7=Drinking With You
TTITLE8=Hungover
TTITLE9=Tennessee
TTITLE10=Alone With You 
TTITLE11=Good Thing
TTITLE12=We Got Love
EXTD=YEAR: 2016
EXTT0=
EXTT1=
EXTT2=
EXTT3=
EXTT4=
EXTT5=
EXTT6=
EXTT7=
EXTT8=
EXTT9=
EXTT10=
EXTT11=
EXTT12=
PLAYORDER=
